Coordinates
version=1
nRows=9
nColumns=24
inDegrees=yes

Units are S.I. units (second, meters, Newtons, ...)
Angles are in degrees.

endheader
time	pelvis_tilt	pelvis_list	pelvis_rotation	pelvis_tx	pelvis_ty	pelvis_tz	hip_flexion_r	hip_adduction_r	hip_rotation_r	knee_angle_r	ankle_angle_r	subtalar_angle_r	mtp_angle_r	hip_flexion_l	hip_adduction_l	hip_rotation_l	knee_angle_l	ankle_angle_l	subtalar_angle_l	mtp_angle_l	lumbar_extension	lumbar_bending	lumbar_rotation
      0.68700000	     -2.11467848	     -3.12415712	      2.27906546	     -0.48288067	      0.99065382	      0.30767619	     13.69909480	      7.26862484	     -4.44277455	    -18.88576535	      8.13695260	     -9.79660675	     -0.36697817	     23.50438237	     -2.92526227	      0.05167700	    -71.69735418	     -6.14162725	     -8.07254919	     -0.34687235	     -0.81551547	      6.88079660	      3.36182843
      0.69116667	     -2.05753993	     -3.03778991	      2.28473029	     -0.47748701	      0.99166464	      0.30778873	     13.03398022	      7.21258606	     -4.42690377	    -18.40273270	      8.19374765	     -9.70934705	     -0.37394163	     24.04371702	     -2.77051005	      0.10112354	    -71.40083486	     -5.58804087	     -8.35489095	     -0.36228671	     -0.88220486	      6.77049722	      3.42510097
      0.69533333	     -1.99847371	     -2.94288074	      2.27830280	     -0.47208389	      0.99263958	      0.30788767	     12.36429551	      7.14719861	     -4.39394729	    -17.91669044	      8.24941871	     -9.61319182	     -0.38059546	     24.55382564	     -2.60707073	      0.13688896	    -71.02986355	     -5.04018082	     -8.62805850	     -0.37777251	     -0.94381909	      6.67943809	      3.50055953
      0.69950000	     -1.87544015	     -2.84063013	      2.27713695	     -0.46664697	      0.99369169	      0.30800473	     11.60511071	      7.07930833	     -4.35582978	    -17.38867846	      8.28078773	     -9.48365921	     -0.39566376	     24.96727593	     -2.45061144	      0.15618816	    -70.57969967	     -4.54447746	     -8.86869834	     -0.41687476	     -1.08655771	      6.55614380	      3.62782246
      0.70366667	     -1.80359058	     -2.74045351	      2.25271352	     -0.46123142	      0.99462101	      0.30812583	     10.91998619	      7.01079679	     -4.30302067	    -16.89892092	      8.33034660	     -9.37742097	     -0.41183151	     25.41495671	     -2.29821396	      0.15684198	    -70.07102565	     -4.01350275	     -9.13815766	     -0.46136753	     -1.17130308	      6.44424064	      3.74473542
      0.70783333	     -1.75001402	     -2.62882899	      2.20205939	     -0.45583576	      0.99546473	      0.30826892	     10.27387022	      6.92853291	     -4.24453918	    -16.44804483	      8.38805972	     -9.27853861	     -0.42254788	     25.85773444	     -2.14517639	      0.12418696	    -69.50105914	     -3.45459869	     -9.42206152	     -0.49127688	     -1.23190600	      6.32192002	      3.83693145
      0.71200000	     -1.68271092	     -2.51494864	      2.15203320	     -0.45043347	      0.99628435	      0.30840730	      9.60572035	      6.84387045	     -4.17079078	    -15.98128967	      8.44064571	     -9.15994952	     -0.43544838	     26.26146406	     -1.99264081	      0.08834274	    -68.86271203	     -2.93053308	     -9.69077023	     -0.53082138	     -1.31635985	      6.19500888	      3.96454437
      0.71616667	     -1.60313196	     -2.40833387	      2.10532096	     -0.44502136	      0.99707742	      0.30854628	      8.91855540	      6.76524536	     -4.10729512	    -15.49996709	      8.49743756	     -9.02641840	     -0.45606401	     26.63037523	     -1.85248486	      0.05220411	    -68.16225531	     -2.44833794	     -9.92730283	     -0.59980337	     -1.41721394	      6.06868207	      4.13880193
      0.72033333	     -1.55527379	     -2.29316236	      2.01926954	     -0.43963958	      0.99774901	      0.30870677	      8.29659644	      6.67422243	     -4.02287145	    -15.08275129	      8.55811434	     -8.90586430	     -0.46882846	     27.00828040	     -1.71861838	     -0.02853722	    -67.40898034	     -1.90746375	    -10.19732007	     -0.64778129	     -1.47861963	      5.95136558	      4.25201296
